<?xml version="1.0" encoding="UTF-8"?>
<svg width="221px" height="36px" viewBox="0 0 221 36" version="1.1" xmlns="http://www.w3.org/2000/svg" xmlns:xlink="http://www.w3.org/1999/xlink">
    <title>logo-light</title>
    <g id="logo-light" stroke="none" stroke-width="1" fill="none" fill-rule="evenodd">
        <g id="brand/logo" transform="translate(0, 1)" fill="#0FA1BF">
            <g id="Group" transform="translate(43.1543, 4.681)">
                <polygon id="Fill-1" points="4.67952379 3.4715203 0 3.4715203 0 1.02622143 12.1360341 1.02622143 12.1360341 3.4715203 7.45651029 3.4715203 7.45651029 23.5450835 4.67952379 23.5450835"></polygon>
                <path d="M14.4913034,12.9801863 L27.0494854,12.9801863 C26.3846743,9.87151215 23.8489151,7.60713381 20.7703944,7.60713381 C17.5999776,7.60713381 15.1546787,9.78105188 14.4913034,12.9801863 M21.3145919,24.4212558 C15.5179556,24.4212558 11.5333964,20.1351624 11.5333964,14.8827236 C11.5333964,9.72074504 15.3370351,5.34275546 20.7703944,5.34275546 C25.8117593,5.34275546 29.9169322,9.41777495 29.9169322,14.5496001 L29.9169322,15.0937975 L14.2802295,15.0937975 C14.4008432,19.2291238 17.2984434,22.1568775 21.3145919,22.1568775 C24.0915784,22.1568775 26.294214,20.980894 27.9239346,19.3497375 L29.5249377,21.0713543 C27.7746034,22.9121489 25.0263344,24.4212558 21.3145919,24.4212558" id="Fill-2"></path>
                <path d="M34.6573372,23.5458015 L32.0612712,23.5458015 L32.0612712,6.21763544 L34.5970303,6.21763544 L34.5970303,8.3614001 C35.7141428,6.97290685 37.7660113,5.76533412 40.271617,5.76533412 C44.1054091,5.76533412 46.4904011,8.24078641 46.4904011,12.2554991 L46.4904011,23.5458015 L43.8943352,23.5458015 L43.8943352,13.0107705 C43.8943352,9.26743861 41.6902637,8.09001931 39.3368609,8.09001931 C37.3438634,8.09001931 34.6573372,9.59912624 34.6573372,12.7078004 L34.6573372,23.5458015 Z" id="Fill-4"></path>
                <path d="M58.3260497,7.78819792 C54.3113371,7.78819792 51.4438903,11.1093819 51.4438903,14.8828672 C51.4438903,18.626199 54.3113371,21.9761005 58.3260497,21.9761005 C62.3106089,21.9761005 65.268516,18.626199 65.268516,14.8828672 C65.268516,11.1380994 62.3106089,7.78819792 58.3260497,7.78819792 L58.3260497,7.78819792 Z M65.2986694,20.4669936 C63.6387953,22.7615253 60.9522691,24.3007857 57.843595,24.3007857 C52.5911562,24.3007857 48.6970572,19.9529495 48.6970572,14.9115847 C48.6970572,9.87165573 52.5911562,5.46351274 57.843595,5.46351274 C60.8919623,5.46351274 63.5483351,6.94246625 65.2082091,9.20684459 L65.2082091,0 L67.7741217,0 L67.7741217,23.5455143 L65.2986694,23.5455143 L65.2986694,20.4669936 Z" id="Fill-6"></path>
                <path d="M72.9981301,12.9801863 L85.5563121,12.9801863 C84.8915009,9.87151215 82.3557418,7.60713381 79.2772211,7.60713381 C76.1068042,7.60713381 73.6615054,9.78105188 72.9981301,12.9801863 M79.8214185,24.4212558 C74.0247823,24.4212558 70.0402231,20.1351624 70.0402231,14.8827236 C70.0402231,9.72074504 73.8438618,5.34275546 79.2772211,5.34275546 C84.3185859,5.34275546 88.4237588,9.41777495 88.4237588,14.5496001 L88.4237588,15.0937975 L72.7870561,15.0937975 C72.9076698,19.2291238 75.80527,22.1568775 79.8214185,22.1568775 C82.598405,22.1568775 84.8010407,20.980894 86.4307613,19.3497375 L88.0317644,21.0713543 C86.28143,22.9121489 83.5331611,24.4212558 79.8214185,24.4212558" id="Fill-8"></path>
                <path d="M93.1648817,23.5458015 L90.5688158,23.5458015 L90.5688158,6.21763544 L93.1045749,6.21763544 L93.1045749,9.62927966 C93.828257,8.27093983 95.5800272,6.21763544 97.9348658,6.21763544 L98.5077808,6.21763544 L98.5077808,9.17697835 C98.3570137,9.08651808 98.0554795,9.05636466 97.874559,9.05636466 C95.0056763,9.05636466 93.1648817,11.893658 93.1648817,13.8550663 L93.1648817,23.5458015 Z" id="Fill-10"></path>
                <path d="M109.044104,6.55061536 L109.044104,9.02606765 C107.896838,8.33110309 106.689265,7.93910861 105.542,7.93910861 C103.791665,7.93910861 102.644399,8.75468686 102.644399,10.0225664 C102.644399,10.9874759 103.520285,11.7125939 105.905277,13.2217008 C109.980296,15.75746 111.067255,17.2665669 111.067255,19.2897179 C111.067255,22.187318 108.682263,23.9979592 105.150005,24.0295485 C103.580591,24.0295485 101.497134,23.4250442 100.138794,22.7300796 L100.138794,20.2244739 C101.830257,21.1606659 103.701205,21.7651702 104.878624,21.7651702 C107.233463,21.7350167 108.320422,20.6179043 108.320422,19.2897179 C108.320422,18.5344465 107.987298,17.5092301 104.456476,15.3654655 C100.924219,13.1312406 99.8975663,12.1045884 99.8975663,9.8416459 C99.8975663,8.02956888 101.527287,5.70488369 105.391232,5.70488369 C106.779726,5.70488369 108.049041,6.06816063 109.044104,6.55061536" id="Fill-12"></path>
                <polygon id="Fill-14" points="116.078179 5.52453752 116.078179 23.5462322 113.301193 23.5462322 113.301193 1.02593426 116.228946 1.02593426 128.817282 18.7762482 128.817282 1.02593426 131.594268 1.02593426 131.594268 23.5462322 128.877589 23.5462322"></polygon>
                <path d="M136.939465,12.9801863 L149.497647,12.9801863 C148.832836,9.87151215 146.297076,7.60713381 143.218556,7.60713381 C140.048139,7.60713381 137.60284,9.78105188 136.939465,12.9801863 M143.762753,24.4212558 C137.966117,24.4212558 133.981558,20.1351624 133.981558,14.8827236 C133.981558,9.72074504 137.785196,5.34275546 143.218556,5.34275546 C148.259921,5.34275546 152.365093,9.41777495 152.365093,14.5496001 L152.365093,15.0937975 L136.728391,15.0937975 C136.849004,19.2291238 139.746605,22.1568775 143.762753,22.1568775 C146.53974,22.1568775 148.742375,20.980894 150.372096,19.3497375 L151.973099,21.0713543 C150.222765,22.9121489 147.474496,24.4212558 143.762753,24.4212558" id="Fill-16"></path>
                <polygon id="Fill-18" points="160.608034 16.3009395 155.204828 23.5463758 152.307228 23.5463758 159.008467 14.5807586 153.061063 6.21820979 156.049124 6.21820979 160.819108 12.9797555 165.679552 6.21820979 168.546999 6.21820979 162.418675 14.5506052 168.727919 23.5463758 165.830319 23.5463758"></polygon>
                <polygon id="Fill-20" points="174.585724 8.45214754 174.585724 23.5460886 171.989658 23.5460886 171.989658 8.45214754 169.604666 8.45214754 169.604666 6.21792262 171.989658 6.21792262 171.989658 2.02228945 174.585724 1.11625093 174.585724 6.21792262 177.000869 6.21792262 177.000869 8.45214754"></polygon>
            </g>
            <path d="M22.0345679,11.8597032 C19.3718385,9.02042505 19.5173188,4.56184811 22.3593269,1.90314451 C25.2013349,-0.757027175 29.6641987,-0.610218583 32.3254586,2.22905959 C34.988188,5.06686967 34.8427077,9.52544661 32.0006997,12.1841502 C29.1586916,14.8443219 29.0132113,19.3014307 31.6744712,22.1407089 C34.3372006,24.9799871 34.1917204,29.4370959 31.3497123,32.0972676 C28.5077042,34.7559712 24.0463099,34.6106307 21.3835805,31.7728206 C18.7223207,28.9335425 18.8678009,24.4749655 21.709809,21.8162619 C24.5518171,19.1560902 24.6972973,14.6989814 22.0345679,11.8597032 M2.19547658,22.0061345 C4.99295856,19.3890852 9.3844556,19.5307035 12.0054677,22.3254984 C14.6264797,25.1202932 14.4818323,29.5090171 11.6843503,32.1260664 C8.88831479,34.7445609 4.49537127,34.6014974 1.87580568,31.8067026 C-0.745206392,29.0119077 -0.602005402,24.624629 2.19547658,22.0061345 M2.19475334,1.87407414 C4.99223532,-0.744420302 9.38517884,-0.601356864 12.0047444,2.19343797 C14.6257565,4.98823281 14.481109,9.37551158 11.6836271,11.994006 C8.88759156,14.6125005 4.49464804,14.469437 1.87508244,11.6746422 C-0.744483155,8.87984734 -0.601282164,4.49256858 2.19475334,1.87407414" id="Combined-Shape"></path>
        </g>
    </g>
</svg>